<?xml version="1.0" standalone="no"?>
<!DOCTYPE svg PUBLIC "-//W3C//DTD SVG 20010904//EN"
 "http://www.w3.org/TR/2001/REC-SVG-20010904/DTD/svg10.dtd">
<svg version="1.0" xmlns="http://www.w3.org/2000/svg"
 width="534.000000pt" height="534.000000pt" viewBox="0 0 534.000000 534.000000"
 preserveAspectRatio="xMidYMid meet">
<metadata>
Created by potrace 1.14, written by Peter Selinger 2001-2017
</metadata>
<g transform="translate(0.000000,534.000000) scale(0.100000,-0.100000)"
fill="#000000" stroke="none">
<path d="M2488 4915 c-2 -1 -37 -5 -78 -9 -129 -11 -265 -41 -420 -95 -488
-167 -941 -531 -1216 -973 -181 -292 -277 -578 -339 -1013 -14 -99 -14 -402 0
-495 21 -134 25 -152 38 -148 7 2 46 54 87 115 83 123 109 158 159 218 67 78
251 255 323 308 64 48 251 167 263 167 2 0 26 13 52 28 26 16 93 53 148 82 55
30 136 73 180 97 128 69 576 292 750 373 208 97 701 342 835 416 135 74 338
206 416 271 34 28 105 95 159 149 l99 97 -30 24 c-54 44 -224 154 -292 188
-146 75 -484 176 -641 194 -66 7 -485 12 -493 6z"/>
<path d="M4179 4873 c-3 -188 -41 -335 -127 -493 -107 -196 -288 -407 -454
-531 -154 -114 -286 -187 -838 -460 -212 -105 -502 -249 -645 -320 -889 -441
-1114 -591 -1299 -869 -135 -202 -188 -377 -182 -595 5 -162 41 -290 106 -372
33 -42 108 -123 114 -123 3 0 3 17 0 37 -22 129 5 299 71 453 32 76 112 217
140 246 5 6 17 22 25 34 35 52 112 135 195 208 52 47 237 172 320 217 28 15
55 31 60 35 24 18 263 140 1030 525 451 226 844 426 873 443 29 18 55 32 57
32 3 0 35 21 73 47 244 168 438 378 553 597 80 153 111 273 110 431 0 123 -11
180 -58 295 -38 93 -99 200 -114 200 -5 0 -9 -17 -10 -37z"/>
<path d="M4670 4258 c-4 -260 -83 -472 -266 -715 -77 -103 -254 -278 -349
-345 -125 -88 -374 -223 -830 -448 -758 -374 -848 -419 -1012 -504 -546 -283
-752 -436 -905 -667 -140 -211 -188 -369 -183 -599 4 -204 47 -319 163 -440
l63 -65 -6 35 c-53 319 143 730 470 985 193 151 321 220 1450 784 407 204 780
394 828 423 144 87 245 166 367 288 174 173 296 360 357 545 24 73 26 94 27
245 0 156 -1 169 -28 245 -15 44 -35 94 -43 110 -33 66 -88 155 -95 155 -4 0
-8 -15 -8 -32z"/>
<path d="M4900 3072 c0 -13 -79 -142 -118 -192 -58 -74 -241 -251 -327 -317
-165 -125 -283 -192 -725 -410 -894 -441 -1427 -708 -1505 -753 -213 -122
-315 -200 -471 -355 -83 -82 -174 -179 -203 -213 -59 -73 -59 -73 26 -128 183
-117 496 -235 683 -259 30 -3 75 -9 100 -13 65 -9 492 -8 575 1 198 23 454
105 680 218 108 54 339 199 390 246 11 10 50 43 85 74 121 105 225 215 328
345 122 154 270 422 345 625 43 119 103 324 112 386 2 15 8 53 14 83 6 30 13
73 17 95 9 66 12 565 3 571 -5 3 -9 1 -9 -4z"/>
</g>
</svg>
